<?xml version="1.0" encoding="utf-8"?>
<!-- Generator: Adobe Illustrator 28.2.0, SVG Export Plug-In . SVG Version: 6.00 Build 0)  -->
<svg version="1.1" id="레이어_1" xmlns="http://www.w3.org/2000/svg" xmlns:xlink="http://www.w3.org/1999/xlink" x="0px"
	 y="0px" viewBox="0 0 258.3 172.7" style="enable-background:new 0 0 258.3 172.7;" xml:space="preserve">
<g>
	<path d="M88.1,126c-10,0-17.6,8.7-20.4,22.6c-3.1,15.3,1.4,24.1,13.2,24.1c12.5,0,18.2-10.7,20.6-22.4
		C104.3,136.6,101.2,126,88.1,126z M91.2,149.5c-2,9.2-5.1,14.7-9.3,14.7c-4.5,0-5.9-4.1-3.9-14.3c1.4-7.1,4.6-15.2,9.5-15.2
		C93.4,134.7,93,141.4,91.2,149.5z"/>
	<path d="M50,136.9H30.9l3-14.7h20.3l2.1-9.2H32.8c-4.2,0-7.9,3-8.8,7.1l-8.4,39.6c-1.7,7.2-8.2,12.3-15.6,12.3h10.3
		c7.7,0,14.3-5.4,15.9-12.9l1.2-5.5l0,0l1.6-7.5H48L50,136.9z"/>
	<path d="M71.3,110H60.8l-8,37.7c0,0,0,0,0,0l-2.4,11.2c-1.6,7.5-8.1,12.9-15.7,12.9h10.3c7.7,0,14.3-5.4,15.9-12.9l1.3-5.4l0,0
		L71.3,110z"/>
	<path d="M190,166.2l-0.2-0.7l0-0.2c0,0,0,0.1,0,0.2l-6.6-26.4c-0.3-1.2,0-2.5,0.8-3.5l19.2-22.6h-12.5
		c-6.3,8.1-15.9,20.2-20.8,26.5l5.8-26.5h-10.4l-2.9,13.8h-2.7l0,0h-4.2c-4,0-7.5,2.5-9,6.2c-3.5,9.1-5.7,15.2-7.2,19.6
		c-0.7,1.6-2.1,1.3-2-0.4l0.2-9.2l0,0.1c0.1-3.8,0.2-8.1,0.2-12.6c0-2-1.6-3.7-3.6-3.7l-3.3,0c-1.5,0-2.8,0.9-3.4,2.3
		c-4.3,10.6-7.4,18.2-9.5,23.6c-0.7,1.5-2.4,1.2-2.3-0.5l0-0.2c0.2-4.9,0.5-11.4,0.8-19.7c0.1-3-2.3-5.5-5.3-5.5l-3.1,0c0,0,0,0,0,0
		h-6.6c0,0,4.7,0.5,4.7,3.5l0,0l0.4,35.7c0,3.3,2.8,6,6.1,6l0.2,0c2.4,0,4.7-1.5,5.6-3.7c5-11.7,9.1-20.4,11-26.2h0.1
		c-0.4,5.4-0.2,13.1-0.4,23.6c-0.1,3.4,2.7,6.2,6.1,6.2c2.4,0,4.6-1.4,5.6-3.6l17.3-38.2c1.3-2.6,3.3-3.2,4.2-3.4l-9.6,45.2h10.4
		l3.3-15.2c0.5-2.3,1.6-4.4,3.1-6.1l5-5.5l5.1,22.5c0.6,2.6,2.9,4.4,5.5,4.4h6.3l0,0l5.9,0C192.2,171,190.5,167.8,190,166.2z"/>
	<path d="M216.4,126c-10.7,0-14.6,5.9-16.2,13h9.8c0.8-3.2,2.2-5.4,5.5-5.4c4.7,0,4.7,3.6,4,7l-0.1,0.5c-0.4,1.6-1.7,2.8-3.4,3
		c-2.2,0.2-4.2,0.4-6.3,0.8c-7.8,1.4-13.8,4.3-15.6,12.9c-1.4,7.1,0.7,14.8,9.8,14.8c4.8,0,7.5-1.5,9.7-4.5l0,0
		c-0.4,2,1.1,3.8,3.1,3.8h6.4c0,0,0,0,0,0h4c-3-0.9-2.7-6.2-2.6-7.1c0.3-1.3,0.6-2.7,0.8-4l4.1-19.2
		C231.8,130.9,226.7,126,216.4,126z M216.7,154.3c-1.3,6.7-3.7,10.1-8.2,10.1c-3.8,0-4.7-2.9-3.9-6.3c0.8-3.5,3.4-5,6.9-5.9
		c1.7-0.4,3.7-0.6,5.8-0.8L216.7,154.3z"/>
	<path d="M249.2,164.5L249.2,164.5c-0.9,0.2-2.4,0.1-3.6,0.1c-3.2,0-3.4-1.5-2.9-4.2l5.6-25.4h6.7l1.7-8.4h-6.6l2.5-11.2h-10.4
		l-2.5,11.2h-5.7l-1.8,8.4h5.7l-5.9,26.5c-1.7,8.2,1.5,11,8.7,11c1.7,0,4.7,0,6.8-0.7c8.1-1.2,10.8-12.6,10.8-12.6
		C255.5,164.1,249.2,164.5,249.2,164.5z"/>
</g>
<g>
	<path d="M159,32.8c-0.9,0.4-2.2-0.3-2.8-1.6c-0.6-1.3-0.4-2.7,0.5-3.2c0.6-0.3,1.2-0.1,1.8,0.3c-0.7-0.7-1.7-1.1-2.7-1.1
		c-2.2,0-4,2-4,4.4s1.8,4.4,4,4.4c2.2,0,4-2,4-4.4c0-0.2,0-0.4,0-0.7C159.9,31.9,159.6,32.5,159,32.8z"/>
	<path d="M191,38.8c0.6-1.4,0.9-2.8,0.8-4.2c0-1.7-0.1-3.4-0.3-5.1c-0.1-1.4-0.3-2.7-0.8-4c-0.4-0.9-0.7-1.8-1.4-2.4
		c-2.3-3-13.5,1.2-15.2,1.8c-0.4,0-0.8,0.1-1.2,0.1c-0.3,0-0.5-0.1-0.7-0.4c-1-1.3-1.9-2.7-2.9-4c-1.7-2.3-3.8-4.2-6.2-5.7
		c-1.9-1.3-4-2.4-6-3.4c-3-1.5-6.1-2.8-9.3-3.8c-1.8-0.6-3.7-1-5.6-1.4c-2-0.4-4.1-0.6-6.2-0.9c-1.6-0.2-3.2-0.4-4.8-0.3
		c-1.6,0.1-3.5,0.3-4,0.4c0,0-0.1,0-0.1,0c-1.3,0.2-2.5,0.4-3.8,0.6c-1.4,0.2-2.7,0.5-4.1,0.8c-1.3,0.3-2.6,0.7-3.9,1.1
		c-1.7,0.5-3.3,1.2-4.9,2c-2.7,1.5-5.3,3.3-7.8,5.2c-2.7,2.1-5.3,4.3-7.1,7.3c-1.1,1.8-2.2,3.6-3.1,5.4c-1.9,4-3.1,8.1-3.7,12.5
		c-0.4,3.2-0.5,6.3-0.6,9.5c0,1.5,0.2,3,0.2,4.6c0,2.8,0.4,5.7,0.7,8.5c0.2,2.5,0.6,5.1,0.9,7.6c0.3,2.4,0.6,4.9,0.9,7.3
		c0.2,2.2,0.3,4.5,0.5,6.8c0.1,0.6,0,1.2,0,1.7c0,2.9-0.1,11.1-0.1,17.3c0,0-0.2,5.1,2.1,4.6c0,0,3.1,1.1,2.9-6.3
		c0,0,0.7-9.2,0.3-14.1c0-0.9,0-1.7,0-2.6c0-0.4,0.1-0.6,0.5-0.7c0.3-0.1,0.6-0.2,0.9-0.3c1.9-0.7,3.7-1.7,5.4-2.9
		c0.2-0.1,0.4-0.2,0.6-0.4c0.1,0,0.2-0.1,0.2-0.1l0,0c7.2-3.8-1.7-1.1-2.9-0.8c-1.1,0.2-1.7,0.4-2.1,0.5c-0.4,0.1-0.8,0.3-1.2,0.4
		c-0.6,0.2-1.1,0.4-1.8,0.7c0-0.3-0.1-0.5-0.1-0.8c0-0.4,0-0.8,0-1.3c-0.2-1.5-0.3-2.9-0.5-4.4c-0.1-1.2-0.3-2.3-0.5-3.5
		c0-0.3,0-0.4,0.2-0.5c1-0.5,1.9-0.9,2.8-1.5c0.6-0.4,1.1-0.8,1.7-1.2c0.6-0.4,1.2-0.7,1.7-1.1c0,0,0.1-0.1,0.1-0.1
		c1.8-1.2-0.2-0.6-1.2-0.2c-2,0.5-5.4,1.4-5.4,1.4c-0.3,0-0.4-0.1-0.4-0.3c-0.2-1.7-0.3-3.3-0.5-5c-0.1-1.2-0.2-2.4-0.4-3.5
		c-0.1-0.6,0-0.9,0.5-1.2c1.2-0.8,2.3-1.6,3.4-2.4c0.1-0.1,0.3-0.2,0.4-0.3c0,0,0,0,0-0.1c0.6-0.6-0.4-0.3-1.1,0
		c-0.9,0.3-1.7,0.6-2.6,0.9c-0.5,0.2-1,0-1-0.6c0-1-0.1-2-0.1-3c0-3.8-0.1-7.7,0.3-11.5c0.2-1.8,0.4-3.5,0.9-5.2
		c0.4-1.4,0.9-2.9,1.5-4.3c0.5-1.2,1-2.4,1.6-3.6c0.8-1.7,1.9-3.2,3.1-4.6c1-1.3,2.2-2.4,3.5-3.4c2.4-2,4.9-3.8,7.7-5.4
		c2.4-1.4,4.9-2.4,7.5-2.9c1.2-0.2,2.4-0.6,3.6-0.8c1.6-0.3,3.3-0.5,4.9-0.7c2.5-0.4,5-0.4,7.4-0.1c2.2,0.3,4.4,0.6,6.6,1
		c1.2,0.2,2.4,0.6,3.5,0.9c1,0.3,1.9,0.5,2.9,0.8c0.4,0.1,0.4,0.2,0.2,0.5c-0.1,0.1-0.2,0.2-0.3,0.2c-0.8,0.4-1.7,0.7-2.4,1.1
		c-1.2,0.7-2.5,1.2-3.6,2.1c-2.7,2-5,4.5-6.7,7.5c-1,1.7-1.8,3.6-2.1,5.6c-0.3,1.5-0.4,3.1-0.5,4.6c-0.1,1,0.1,2.1,0.2,3.1
		c0.1,0.8,0.4,1.6,0.6,2.4c0.4,1.4,0.9,2.7,1.7,4c1.5,2.4,3.5,4.4,5.8,6c2,1.4,4.1,2.6,6.5,3.2c0.4,0.1,0.8,0.2,1.2,0.4
		c0.5,0.2,0.5,0.4,0.1,0.7c-0.5,0.4-1,0.7-1.4,1.1c-0.8,0.7-1.5,1.5-2.3,2.1c-1,0.9-1.8,2-2.4,3.2c-0.4,0.9-0.9,1.9-1.3,2.8
		c0,0,0,0-0.1,0.4c0,0.6-0.1,1.2-0.1,1.9c0,0.4-0.1,0.9,0,1.3c0.1,0.8,0.3,1.5,0.4,2.2c0.1,0.6,0.3,1.3,0.5,1.9
		c0.9,2,2.1,3.9,3.6,5.5c1,1.2,2.2,2.2,3,3.6c1.1,2,2.3,3.9,3.1,6c0.2,0.5,0.3,1,0.5,1.5c0.1,0.5,0.2,1,0.3,1.5
		c0,0.1,0.1,0.7,0.1,0.8c0.1,0.5,0.3,1.3,0.4,1.8c0,0,0,0,0,0.1c0,0,0,0,0,0c3.7,32.9,7.7,6.1,8.6-0.6c0.2-0.5,0.1-1,0.2-1.4
		c0.1-1.2,0.2-2.3,0.3-3.5c0.1-1.3,0.3-2.5,0.5-3.8c0.1-1,0.3-1.9,0.5-2.9c0.3-1.5,0.5-3.1,0.9-4.6c0.2-1.1,0.6-2.2,0.9-3.4
		c0.3-1.1,0.6-2.1,1.1-3.1c0.6-1.3,1.3-2.6,2.4-3.5c0.8-0.7,1.6-1.4,2.4-2c2.4-1.9,4.9-3.8,7.3-5.7c2.5-1.9,4.9-3.9,7.2-6
		c1.9-1.8,3.3-4,4.2-6.5c0.7-1.9,0.9-3.8,0.5-5.9C190.8,39.6,190.9,39.2,191,38.8z M166.7,30.2c-0.5,1.6-1.3,3.1-2.2,4.6
		c-1,1.8-2.1,3.5-3.4,5.1c-2.1,2.5-4.7,4.5-8,5c-0.8,0.1-1.6,0.1-2.2,0.2c-2.8-0.1-5.5-0.4-8-1.2c-1.8-0.6-3.3-1.6-4.4-3.2
		c-0.1-0.1-0.2-0.3-0.3-0.4c-0.6-0.5-0.5-1.1-0.1-1.7c1-1.7,2-3.5,3.1-5.1c1.8-2.7,3.8-5.3,5.7-8c1.1-1.4,2.4-2.7,3.8-3.8
		c0.5-0.4,1-0.7,1.6-1c0.3-0.1,0.6-0.2,0.9-0.1c1.5,0.4,2.9,1.1,4.3,1.8c2.7,1.4,5.2,3.1,7.6,5c0.5,0.4,0.9,0.8,1.3,1.3
		C166.8,29.2,166.9,29.7,166.7,30.2z M186.5,36.3C186.5,36.3,186.5,36.3,186.5,36.3c0,0.1-0.1,0.2-0.1,0.3c0,0.1-0.1,0.2-0.1,0.4
		c-0.2,0.4-0.3,0.6-0.8,0.4c-0.3-0.1-0.6-0.3-0.9-0.4c-0.4-0.2-0.7,0-0.9,0.2c-0.3,0.2-0.4,0.5-0.3,0.8c0.2,0.4,0.5,0.7,0.9,0.8
		c0.3,0.1,0.7,0.2,1,0.3c0.3,0.1,0.4,0.2,0.4,0.5c0,0.8,0.1,1.7,0.1,2.5c0,1-0.4,1.9-0.8,2.8c-0.7,1.6-1.8,2.8-3,4
		c-0.3,0.2-0.5,0.3-0.8,0.1c-1.4-1-2.6-2.2-3.6-3.5c-1.4-1.7-2.4-3.6-2.9-5.7c-0.6-2.3-1.2-4.5-1.1-6.9c0-0.8,0-1.6-0.1-2.4
		c0-0.1,0-0.1,0-0.2c0,0,0,0,0,0c0-0.1,0-0.1,0.1-0.2c0,0,0,0,0,0c0,0,0.1-0.1,0.1-0.1c0,0,0,0,0,0c0,0,0.1-0.1,0.2-0.1
		C175.3,29.4,191.8,21.3,186.5,36.3z"/>
	<path d="M153.9,92.8c0-0.1,0-0.1,0-0.2C153.9,92.6,154,93.1,153.9,92.8z"/>
	<path d="M112.2,28.3c-2.6,1.4-4.6,3.5-6.3,5.9c-0.2,0.3-0.5,0.7-0.6,1.1c-1.1,2.2-1.2,4.6-0.9,7c0.3,2,1,3.8,2.1,5.5
		c1.7,2.6,4,4.3,6.9,5.3c0.2,0.1,0.3,0.1,0.5,0.1c0,0,0.1-0.1,0.1-0.1c-0.1-0.2-0.2-0.4-0.3-0.5c-0.9-0.9-1.7-2-2.4-3.1
		c-1-1.5-1.8-3.2-2.3-5c-0.5-1.9-0.5-3.8-0.3-5.7c0.1-0.9,0.3-1.9,0.7-2.7c0.3-0.9,0.8-1.8,1.3-2.7c1.1-2,2.4-3.9,3.9-5.6
		c0.1-0.1,0.2-0.3,0.3-0.5c-0.2,0-0.3,0-0.4,0C113.8,27.7,113,27.9,112.2,28.3z"/>
</g>
</svg>
